<svg xmlns="http://www.w3.org/2000/svg" width="92.337" height="131.125" viewBox="0 0 92.337 131.125">
  <path id="Subtraction_1" data-name="Subtraction 1" d="M38.383,131.126a1.661,1.661,0,0,1-.99-.324l-6.178-4.548a1.671,1.671,0,0,0-1.987,0L23.057,130.8a1.651,1.651,0,0,1-.976.324,1.553,1.553,0,0,1-.732-.181,1.634,1.634,0,0,1-.868-1.5V105.936H40.124v23.509a1.723,1.723,0,0,1-.95,1.5A1.807,1.807,0,0,1,38.383,131.126Zm32.891-9.408H45.832v-8.227H71.274A12.751,12.751,0,0,0,83.5,104.054a25.627,25.627,0,0,0,8.836-5.836v2.448a20.993,20.993,0,0,1-21.064,21.052Zm-56.5,0H7.888a7.364,7.364,0,0,1-5.718-2.735A9.75,9.75,0,0,1,0,112.813v-7.969a13.508,13.508,0,0,0,5.452,1.092H7.888v7.052a.5.5,0,0,0,.5.5h6.38v8.226ZM73.344,97.537H5.455A5.433,5.433,0,0,1,0,92.138V5.315A5.206,5.206,0,0,1,1.609,1.54,5.505,5.505,0,0,1,5.455,0H73.344A18.935,18.935,0,0,1,92.337,18.929v59.6A19,19,0,0,1,73.344,97.537ZM30.081,43.827A3.075,3.075,0,0,0,27.744,44.9l-4,4.671a3.074,3.074,0,0,0,.335,4.337L39.256,66.92a3.04,3.04,0,0,0,2,.74c.094,0,.187,0,.275-.012a3.065,3.065,0,0,0,2.108-1.111L69.6,34.934a3.08,3.08,0,0,0-.425-4.333l-4.753-3.9a3.081,3.081,0,0,0-4.329.425L40.111,51.443l-8.03-6.88A3.083,3.083,0,0,0,30.081,43.827Z"/>
</svg>
